<svg width="262" height="63" viewBox="0 0 262 63" fill="none" xmlns="http://www.w3.org/2000/svg">
<rect x="1.5" y="1.5" width="259" height="60" rx="30" stroke="url(#paint0_linear_287_17)" stroke-width="3"/>
<path d="M30.9609 36.7891C30.5599 37.0703 30.1823 37.3021 29.8281 37.4844C29.474 37.6667 29.1302 37.8099 28.7969 37.9141C28.4635 38.0182 28.1354 38.0911 27.8125 38.1328C27.4896 38.1745 27.1589 38.1953 26.8203 38.1953C26.0807 38.1953 25.401 38.0677 24.7812 37.8125C24.1615 37.5573 23.625 37.1823 23.1719 36.6875C22.724 36.1927 22.3724 35.5859 22.1172 34.8672C21.8672 34.1432 21.7422 33.3125 21.7422 32.375C21.7422 31.4375 21.8828 30.599 22.1641 29.8594C22.4453 29.1198 22.8281 28.4948 23.3125 27.9844C23.8021 27.4688 24.3724 27.0755 25.0234 26.8047C25.6797 26.5339 26.3828 26.3984 27.1328 26.3984C27.4505 26.3984 27.7578 26.4141 28.0547 26.4453C28.3516 26.4714 28.6484 26.5234 28.9453 26.6016C29.2474 26.6797 29.5521 26.7917 29.8594 26.9375C30.1719 27.0781 30.5 27.263 30.8438 27.4922L30.3359 28.8984C30.0443 28.6641 29.7604 28.4714 29.4844 28.3203C29.2135 28.1641 28.9479 28.0443 28.6875 27.9609C28.4271 27.8724 28.1667 27.8125 27.9062 27.7812C27.651 27.7448 27.3932 27.7266 27.1328 27.7266C26.5391 27.7266 26.0026 27.8307 25.5234 28.0391C25.0443 28.2474 24.638 28.5443 24.3047 28.9297C23.9714 29.3151 23.7135 29.7839 23.5312 30.3359C23.3542 30.8828 23.2656 31.4974 23.2656 32.1797C23.2656 32.8984 23.349 33.5443 23.5156 34.1172C23.6875 34.6901 23.9323 35.1797 24.25 35.5859C24.5677 35.987 24.9505 36.2943 25.3984 36.5078C25.8516 36.7214 26.3568 36.8281 26.9141 36.8281C27.1484 36.8281 27.3672 36.8177 27.5703 36.7969C27.7786 36.7708 27.9844 36.7292 28.1875 36.6719C28.3906 36.6146 28.5964 36.5391 28.8047 36.4453C29.013 36.3516 29.237 36.2318 29.4766 36.0859V33.4688H26.7422V32.1797H30.9609V36.7891ZM34.2812 34.2109C34.2969 34.6693 34.3672 35.0677 34.4922 35.4062C34.6224 35.7448 34.7969 36.026 35.0156 36.25C35.2396 36.4688 35.5 36.6328 35.7969 36.7422C36.099 36.8516 36.4271 36.9062 36.7812 36.9062C37.2865 36.9062 37.7812 36.849 38.2656 36.7344C38.75 36.6198 39.2318 36.4167 39.7109 36.125L39.8672 37.4141C39.5911 37.5547 39.3203 37.6745 39.0547 37.7734C38.7891 37.8724 38.5234 37.9531 38.2578 38.0156C37.9922 38.0781 37.7214 38.1224 37.4453 38.1484C37.1745 38.1797 36.888 38.1953 36.5859 38.1953C36.0859 38.1953 35.6094 38.1094 35.1562 37.9375C34.7031 37.7604 34.3047 37.5026 33.9609 37.1641C33.6172 36.8203 33.3438 36.3958 33.1406 35.8906C32.9375 35.3854 32.8359 34.7995 32.8359 34.1328C32.8359 33.487 32.9219 32.9036 33.0938 32.3828C33.2708 31.8568 33.5208 31.4089 33.8438 31.0391C34.1667 30.6641 34.5599 30.3776 35.0234 30.1797C35.487 29.9766 36.0078 29.875 36.5859 29.875C37.013 29.875 37.3906 29.9271 37.7188 30.0312C38.0469 30.1302 38.3307 30.2708 38.5703 30.4531C38.8099 30.6302 39.0104 30.8385 39.1719 31.0781C39.3333 31.3177 39.4609 31.5755 39.5547 31.8516C39.6536 32.1276 39.724 32.4167 39.7656 32.7188C39.8073 33.0156 39.8281 33.3099 39.8281 33.6016V33.9062C39.8281 34.0365 39.8255 34.138 39.8203 34.2109H34.2812ZM36.4688 31.0469C35.8958 31.0469 35.4271 31.2161 35.0625 31.5547C34.6979 31.888 34.4583 32.4089 34.3438 33.1172H38.4219C38.4219 32.7839 38.3724 32.4896 38.2734 32.2344C38.1797 31.974 38.0443 31.7552 37.8672 31.5781C37.6953 31.401 37.4896 31.2682 37.25 31.1797C37.0104 31.0911 36.75 31.0469 36.4688 31.0469ZM40.8906 30.2266H42.4531V27.6875H43.8984V30.2266H46.4375V31.3594H43.8984V34.9531C43.8984 35.3542 43.9167 35.6823 43.9531 35.9375C43.9948 36.1927 44.0547 36.3932 44.1328 36.5391C44.2161 36.6797 44.3203 36.776 44.4453 36.8281C44.5703 36.8802 44.7214 36.9062 44.8984 36.9062C45.1224 36.9062 45.375 36.8568 45.6562 36.7578C45.9375 36.6589 46.25 36.513 46.5938 36.3203V37.5703C46.2344 37.8047 45.8906 37.9661 45.5625 38.0547C45.2344 38.1484 44.9323 38.1953 44.6562 38.1953C44.349 38.1953 44.0625 38.1589 43.7969 38.0859C43.5312 38.0182 43.2969 37.8958 43.0938 37.7188C42.8958 37.5417 42.7396 37.3073 42.625 37.0156C42.5104 36.7188 42.4531 36.3438 42.4531 35.8906V31.3594H40.8906V30.2266ZM58.9844 28.625C58.7031 28.4688 58.4427 28.3385 58.2031 28.2344C57.9688 28.125 57.7396 28.0365 57.5156 27.9688C57.2917 27.8958 57.0677 27.8438 56.8438 27.8125C56.6198 27.7812 56.3828 27.7656 56.1328 27.7656C55.8203 27.7656 55.5339 27.8125 55.2734 27.9062C55.0182 28 54.7969 28.125 54.6094 28.2812C54.4219 28.4375 54.276 28.6172 54.1719 28.8203C54.0729 29.0234 54.0234 29.2318 54.0234 29.4453C54.0234 29.6589 54.0521 29.8542 54.1094 30.0312C54.1719 30.2031 54.2943 30.3672 54.4766 30.5234C54.6589 30.6745 54.9193 30.8255 55.2578 30.9766C55.5964 31.1224 56.0443 31.276 56.6016 31.4375C57.1172 31.5885 57.5729 31.7656 57.9688 31.9688C58.3698 32.1667 58.7057 32.3958 58.9766 32.6562C59.2474 32.9167 59.4531 33.2135 59.5938 33.5469C59.7344 33.8802 59.8047 34.2578 59.8047 34.6797C59.8047 35.2057 59.7005 35.6849 59.4922 36.1172C59.2891 36.5443 59.0078 36.9141 58.6484 37.2266C58.2943 37.5339 57.8802 37.7734 57.4062 37.9453C56.9323 38.112 56.4297 38.1953 55.8984 38.1953C55.5234 38.1953 55.1562 38.1693 54.7969 38.1172C54.4427 38.0651 54.1068 37.9922 53.7891 37.8984C53.4766 37.8047 53.1875 37.6953 52.9219 37.5703C52.6562 37.4401 52.4245 37.2969 52.2266 37.1406L52.5781 35.5391C53.099 35.9922 53.6354 36.3203 54.1875 36.5234C54.7448 36.7266 55.3151 36.8281 55.8984 36.8281C56.2109 36.8281 56.513 36.7839 56.8047 36.6953C57.0964 36.6068 57.3542 36.4792 57.5781 36.3125C57.8021 36.1406 57.9818 35.9323 58.1172 35.6875C58.2526 35.4375 58.3203 35.1536 58.3203 34.8359C58.3203 34.6328 58.2865 34.4401 58.2188 34.2578C58.1562 34.0703 58.026 33.888 57.8281 33.7109C57.6302 33.5339 57.3464 33.3594 56.9766 33.1875C56.6068 33.0104 56.1172 32.8307 55.5078 32.6484C54.8984 32.4661 54.401 32.2656 54.0156 32.0469C53.6302 31.8281 53.3281 31.5911 53.1094 31.3359C52.8906 31.0755 52.7396 30.7995 52.6562 30.5078C52.5781 30.2109 52.5391 29.8958 52.5391 29.5625C52.5391 29.2292 52.6068 28.8776 52.7422 28.5078C52.8828 28.138 53.1016 27.7969 53.3984 27.4844C53.6953 27.1719 54.0755 26.9141 54.5391 26.7109C55.0026 26.5026 55.5599 26.3984 56.2109 26.3984C56.513 26.3984 56.7943 26.4115 57.0547 26.4375C57.3203 26.4635 57.5755 26.5052 57.8203 26.5625C58.0703 26.6198 58.3151 26.6927 58.5547 26.7812C58.7943 26.8698 59.0417 26.9766 59.2969 27.1016L58.9844 28.625ZM60.9062 30.2266H62.4688V27.6875H63.9141V30.2266H66.4531V31.3594H63.9141V34.9531C63.9141 35.3542 63.9323 35.6823 63.9688 35.9375C64.0104 36.1927 64.0703 36.3932 64.1484 36.5391C64.2318 36.6797 64.3359 36.776 64.4609 36.8281C64.5859 36.8802 64.737 36.9062 64.9141 36.9062C65.138 36.9062 65.3906 36.8568 65.6719 36.7578C65.9531 36.6589 66.2656 36.513 66.6094 36.3203V37.5703C66.25 37.8047 65.9062 37.9661 65.5781 38.0547C65.25 38.1484 64.9479 38.1953 64.6719 38.1953C64.3646 38.1953 64.0781 38.1589 63.8125 38.0859C63.5469 38.0182 63.3125 37.8958 63.1094 37.7188C62.9115 37.5417 62.7552 37.3073 62.6406 37.0156C62.526 36.7188 62.4688 36.3438 62.4688 35.8906V31.3594H60.9062V30.2266ZM73.4922 31.2656C73.4297 31.25 73.3594 31.2344 73.2812 31.2188C73.2031 31.2031 73.1094 31.1875 73 31.1719C72.8958 31.1562 72.7708 31.1458 72.625 31.1406C72.4844 31.1302 72.3177 31.125 72.125 31.125C71.6146 31.125 71.1875 31.2292 70.8438 31.4375C70.5052 31.6406 70.2344 31.9141 70.0312 32.2578C69.8281 32.5964 69.6823 32.987 69.5938 33.4297C69.5104 33.8724 69.4688 34.3281 69.4688 34.7969C69.4688 35.099 69.4974 35.3776 69.5547 35.6328C69.6172 35.8828 69.7005 36.1016 69.8047 36.2891C69.9089 36.4714 70.0286 36.6146 70.1641 36.7188C70.2995 36.8177 70.4453 36.8672 70.6016 36.8672C70.8307 36.8672 71.0599 36.7786 71.2891 36.6016C71.5234 36.4245 71.7474 36.1979 71.9609 35.9219C72.1745 35.6406 72.375 35.3281 72.5625 34.9844C72.75 34.6354 72.9115 34.2917 73.0469 33.9531C73.1875 33.6094 73.2969 33.2865 73.375 32.9844C73.4531 32.6823 73.4922 32.4401 73.4922 32.2578V31.2656ZM74.0781 38C74.0208 37.875 73.9688 37.7031 73.9219 37.4844C73.8802 37.2656 73.8438 37.0339 73.8125 36.7891C73.7865 36.5391 73.7656 36.2917 73.75 36.0469C73.7344 35.8021 73.7266 35.5938 73.7266 35.4219V34.7969C73.5703 35.2031 73.3828 35.6094 73.1641 36.0156C72.9505 36.4167 72.7031 36.7786 72.4219 37.1016C72.1458 37.4245 71.8359 37.6875 71.4922 37.8906C71.1484 38.0938 70.7734 38.1953 70.3672 38.1953C70.0391 38.1953 69.7318 38.1224 69.4453 37.9766C69.1589 37.8307 68.9089 37.6146 68.6953 37.3281C68.487 37.0417 68.3229 36.6875 68.2031 36.2656C68.0833 35.8385 68.0234 35.349 68.0234 34.7969C68.0234 34.1771 68.1068 33.5729 68.2734 32.9844C68.4401 32.3906 68.6953 31.8646 69.0391 31.4062C69.3828 30.9427 69.8203 30.5729 70.3516 30.2969C70.8828 30.0156 71.513 29.875 72.2422 29.875C72.7474 29.875 73.224 29.9089 73.6719 29.9766C74.1198 30.0391 74.5417 30.1224 74.9375 30.2266V33.8594C74.9375 34.8438 74.9844 35.6719 75.0781 36.3438C75.1719 37.0104 75.2943 37.5625 75.4453 38H74.0781ZM77.3984 38V33.1953C77.3984 32.4245 77.3542 31.7734 77.2656 31.2422C77.1823 30.7057 77.0964 30.3021 77.0078 30.0312H78.4141C78.4453 30.1146 78.4766 30.224 78.5078 30.3594C78.5391 30.4896 78.5677 30.6276 78.5938 30.7734C78.6198 30.9193 78.6432 31.0625 78.6641 31.2031L78.7266 31.5547C78.9141 31.2839 79.1172 31.0443 79.3359 30.8359C79.5599 30.6276 79.7839 30.4531 80.0078 30.3125C80.237 30.1667 80.4583 30.0573 80.6719 29.9844C80.8906 29.9115 81.0885 29.875 81.2656 29.875C81.5938 29.875 81.8698 29.9479 82.0938 30.0938C82.3229 30.2344 82.5078 30.4271 82.6484 30.6719C82.7943 30.9115 82.8984 31.1901 82.9609 31.5078C83.0286 31.8203 83.0625 32.1484 83.0625 32.4922L81.8125 32.7656C81.8125 32.5729 81.7943 32.388 81.7578 32.2109C81.7214 32.0286 81.6667 31.8698 81.5938 31.7344C81.5208 31.5938 81.4271 31.4844 81.3125 31.4062C81.2031 31.3229 81.0703 31.2812 80.9141 31.2812C80.7474 31.2812 80.5625 31.3464 80.3594 31.4766C80.1562 31.6016 79.9557 31.7682 79.7578 31.9766C79.5651 32.1849 79.3854 32.4193 79.2188 32.6797C79.0521 32.9401 78.9271 33.2031 78.8438 33.4688V38H77.3984ZM83.375 30.2266H84.9375V27.6875H86.3828V30.2266H88.9219V31.3594H86.3828V34.9531C86.3828 35.3542 86.401 35.6823 86.4375 35.9375C86.4792 36.1927 86.5391 36.3932 86.6172 36.5391C86.7005 36.6797 86.8047 36.776 86.9297 36.8281C87.0547 36.8802 87.2057 36.9062 87.3828 36.9062C87.6068 36.9062 87.8594 36.8568 88.1406 36.7578C88.4219 36.6589 88.7344 36.513 89.0781 36.3203V37.5703C88.7188 37.8047 88.375 37.9661 88.0469 38.0547C87.7188 38.1484 87.4167 38.1953 87.1406 38.1953C86.8333 38.1953 86.5469 38.1589 86.2812 38.0859C86.0156 38.0182 85.7812 37.8958 85.5781 37.7188C85.3802 37.5417 85.224 37.3073 85.1094 37.0156C84.9948 36.7188 84.9375 36.3438 84.9375 35.8906V31.3594H83.375V30.2266ZM91.8594 34.2109C91.875 34.6693 91.9453 35.0677 92.0703 35.4062C92.2005 35.7448 92.375 36.026 92.5938 36.25C92.8177 36.4688 93.0781 36.6328 93.375 36.7422C93.6771 36.8516 94.0052 36.9062 94.3594 36.9062C94.8646 36.9062 95.3594 36.849 95.8438 36.7344C96.3281 36.6198 96.8099 36.4167 97.2891 36.125L97.4453 37.4141C97.1693 37.5547 96.8984 37.6745 96.6328 37.7734C96.3672 37.8724 96.1016 37.9531 95.8359 38.0156C95.5703 38.0781 95.2995 38.1224 95.0234 38.1484C94.7526 38.1797 94.4661 38.1953 94.1641 38.1953C93.6641 38.1953 93.1875 38.1094 92.7344 37.9375C92.2812 37.7604 91.8828 37.5026 91.5391 37.1641C91.1953 36.8203 90.9219 36.3958 90.7188 35.8906C90.5156 35.3854 90.4141 34.7995 90.4141 34.1328C90.4141 33.487 90.5 32.9036 90.6719 32.3828C90.849 31.8568 91.099 31.4089 91.4219 31.0391C91.7448 30.6641 92.138 30.3776 92.6016 30.1797C93.0651 29.9766 93.5859 29.875 94.1641 29.875C94.5911 29.875 94.9688 29.9271 95.2969 30.0312C95.625 30.1302 95.9089 30.2708 96.1484 30.4531C96.388 30.6302 96.5885 30.8385 96.75 31.0781C96.9115 31.3177 97.0391 31.5755 97.1328 31.8516C97.2318 32.1276 97.3021 32.4167 97.3438 32.7188C97.3854 33.0156 97.4062 33.3099 97.4062 33.6016V33.9062C97.4062 34.0365 97.4036 34.138 97.3984 34.2109H91.8594ZM94.0469 31.0469C93.474 31.0469 93.0052 31.2161 92.6406 31.5547C92.276 31.888 92.0365 32.4089 91.9219 33.1172H96C96 32.7839 95.9505 32.4896 95.8516 32.2344C95.7578 31.974 95.6224 31.7552 95.4453 31.5781C95.2734 31.401 95.0677 31.2682 94.8281 31.1797C94.5885 31.0911 94.3281 31.0469 94.0469 31.0469ZM104.836 31.7891C104.643 31.6849 104.464 31.5964 104.297 31.5234C104.13 31.4505 103.966 31.3906 103.805 31.3438C103.643 31.2969 103.479 31.263 103.312 31.2422C103.146 31.2161 102.964 31.2031 102.766 31.2031C102.469 31.2031 102.185 31.2708 101.914 31.4062C101.643 31.5417 101.401 31.737 101.188 31.9922C100.979 32.2474 100.812 32.5599 100.688 32.9297C100.562 33.2943 100.5 33.7083 100.5 34.1719C100.5 35.0833 100.654 35.7734 100.961 36.2422C101.273 36.7109 101.771 36.9453 102.453 36.9453C102.693 36.9453 102.93 36.8854 103.164 36.7656C103.404 36.6458 103.628 36.4896 103.836 36.2969C104.049 36.1042 104.242 35.8854 104.414 35.6406C104.586 35.3906 104.727 35.1354 104.836 34.875V31.7891ZM106.281 33.8594C106.281 34.8438 106.336 35.6719 106.445 36.3438C106.56 37.0104 106.701 37.5625 106.867 38H105.461C105.404 37.8646 105.333 37.6641 105.25 37.3984C105.172 37.1276 105.099 36.8464 105.031 36.5547C104.656 37.0859 104.232 37.4922 103.758 37.7734C103.284 38.0547 102.758 38.1953 102.18 38.1953C101.701 38.1953 101.268 38.1068 100.883 37.9297C100.503 37.7474 100.174 37.4922 99.8984 37.1641C99.6276 36.8307 99.4193 36.4323 99.2734 35.9688C99.1276 35.5 99.0547 34.9792 99.0547 34.4062C99.0547 33.7135 99.1484 33.0885 99.3359 32.5312C99.5286 31.974 99.7917 31.5 100.125 31.1094C100.458 30.7135 100.849 30.4089 101.297 30.1953C101.75 29.9818 102.24 29.875 102.766 29.875C102.932 29.875 103.104 29.8932 103.281 29.9297C103.464 29.9661 103.643 30.0156 103.82 30.0781C104.003 30.1406 104.18 30.2135 104.352 30.2969C104.523 30.375 104.685 30.4557 104.836 30.5391V28.3516C104.836 27.7214 104.82 27.1719 104.789 26.7031C104.763 26.2292 104.714 25.8281 104.641 25.5H106.281V33.8594ZM118.469 30.0312L120.5 36.3203L122.141 30.0312H123.586C123.492 30.3281 123.409 30.5964 123.336 30.8359C123.268 31.0703 123.203 31.2969 123.141 31.5156C123.078 31.7292 123.016 31.9401 122.953 32.1484C122.896 32.3516 122.833 32.5703 122.766 32.8047L121.32 38H119.836L117.883 31.8672L115.93 38H114.445L113 32.8047C112.943 32.5964 112.883 32.3906 112.82 32.1875C112.763 31.9844 112.701 31.7734 112.633 31.5547C112.57 31.3359 112.503 31.1016 112.43 30.8516C112.357 30.6016 112.273 30.3281 112.18 30.0312H113.625L115.266 36.3203L117.297 30.0312H118.469ZM125.148 27.4922C125.148 27.3464 125.172 27.2109 125.219 27.0859C125.266 26.9557 125.331 26.8438 125.414 26.75C125.503 26.651 125.607 26.5755 125.727 26.5234C125.846 26.4661 125.979 26.4375 126.125 26.4375C126.271 26.4375 126.406 26.4661 126.531 26.5234C126.656 26.5755 126.763 26.651 126.852 26.75C126.94 26.8438 127.01 26.9557 127.062 27.0859C127.115 27.2109 127.141 27.3464 127.141 27.4922C127.141 27.638 127.115 27.776 127.062 27.9062C127.01 28.0312 126.94 28.1432 126.852 28.2422C126.763 28.3359 126.656 28.4115 126.531 28.4688C126.406 28.5208 126.271 28.5469 126.125 28.5469C125.979 28.5469 125.846 28.5208 125.727 28.4688C125.607 28.4115 125.503 28.3359 125.414 28.2422C125.331 28.1432 125.266 28.0312 125.219 27.9062C125.172 27.776 125.148 27.638 125.148 27.4922ZM126.867 34.2891C126.867 34.5391 126.87 34.8359 126.875 35.1797C126.885 35.5182 126.896 35.862 126.906 36.2109C126.922 36.5599 126.938 36.8932 126.953 37.2109C126.974 37.5286 126.997 37.7917 127.023 38H125.422V33.8594C125.422 33.4792 125.419 33.1042 125.414 32.7344C125.414 32.3646 125.409 32.0156 125.398 31.6875C125.393 31.3542 125.383 31.0469 125.367 30.7656C125.352 30.4792 125.331 30.2344 125.305 30.0312H126.867V34.2891ZM128.594 30.2266H130.156V27.6875H131.602V30.2266H134.141V31.3594H131.602V34.9531C131.602 35.3542 131.62 35.6823 131.656 35.9375C131.698 36.1927 131.758 36.3932 131.836 36.5391C131.919 36.6797 132.023 36.776 132.148 36.8281C132.273 36.8802 132.424 36.9062 132.602 36.9062C132.826 36.9062 133.078 36.8568 133.359 36.7578C133.641 36.6589 133.953 36.513 134.297 36.3203V37.5703C133.938 37.8047 133.594 37.9661 133.266 38.0547C132.938 38.1484 132.635 38.1953 132.359 38.1953C132.052 38.1953 131.766 38.1589 131.5 38.0859C131.234 38.0182 131 37.8958 130.797 37.7188C130.599 37.5417 130.443 37.3073 130.328 37.0156C130.214 36.7188 130.156 36.3438 130.156 35.8906V31.3594H128.594V30.2266ZM141.57 38V33.7031C141.57 33.2135 141.536 32.8099 141.469 32.4922C141.406 32.1745 141.31 31.9245 141.18 31.7422C141.049 31.5547 140.885 31.4245 140.688 31.3516C140.495 31.2786 140.268 31.2422 140.008 31.2422C139.727 31.2422 139.451 31.3099 139.18 31.4453C138.914 31.5755 138.669 31.7474 138.445 31.9609C138.221 32.1693 138.023 32.4062 137.852 32.6719C137.68 32.9375 137.552 33.2031 137.469 33.4688V38H136.023V29.1719C136.023 28.3281 136.018 27.5911 136.008 26.9609C135.997 26.3255 135.964 25.8385 135.906 25.5H137.469V31.5156C137.854 30.9688 138.307 30.5599 138.828 30.2891C139.349 30.013 139.885 29.875 140.438 29.875C141.271 29.875 141.909 30.1484 142.352 30.6953C142.794 31.237 143.016 32.0443 143.016 33.1172V38H141.57ZM157.984 36.9062C157.755 37.1198 157.487 37.3073 157.18 37.4688C156.872 37.625 156.549 37.7578 156.211 37.8672C155.878 37.9766 155.539 38.0573 155.195 38.1094C154.852 38.1667 154.531 38.1953 154.234 38.1953C153.443 38.1953 152.732 38.0625 152.102 37.7969C151.471 37.526 150.935 37.1432 150.492 36.6484C150.049 36.1484 149.708 35.5443 149.469 34.8359C149.234 34.1276 149.117 33.3333 149.117 32.4531C149.117 31.4479 149.263 30.5677 149.555 29.8125C149.846 29.0521 150.234 28.4193 150.719 27.9141C151.208 27.4089 151.771 27.0312 152.406 26.7812C153.042 26.526 153.703 26.3984 154.391 26.3984C154.672 26.3984 154.958 26.4167 155.25 26.4531C155.542 26.4896 155.833 26.5495 156.125 26.6328C156.422 26.7161 156.716 26.8281 157.008 26.9688C157.299 27.1094 157.586 27.2839 157.867 27.4922L157.398 28.8984C157.154 28.6797 156.904 28.4948 156.648 28.3438C156.393 28.1927 156.138 28.0729 155.883 27.9844C155.628 27.8906 155.372 27.8255 155.117 27.7891C154.867 27.7474 154.625 27.7266 154.391 27.7266C153.844 27.7266 153.341 27.8229 152.883 28.0156C152.424 28.2031 152.029 28.487 151.695 28.8672C151.367 29.2474 151.109 29.7214 150.922 30.2891C150.734 30.8516 150.641 31.5078 150.641 32.2578C150.641 32.9609 150.732 33.5938 150.914 34.1562C151.102 34.7188 151.357 35.1979 151.68 35.5938C152.008 35.9896 152.396 36.2943 152.844 36.5078C153.292 36.7214 153.781 36.8281 154.312 36.8281C154.609 36.8281 154.909 36.7943 155.211 36.7266C155.518 36.6589 155.818 36.5625 156.109 36.4375C156.401 36.3073 156.68 36.1536 156.945 35.9766C157.211 35.7995 157.453 35.6016 157.672 35.3828L157.984 36.9062ZM161.898 34.2891C161.898 34.5391 161.901 34.8333 161.906 35.1719C161.917 35.5104 161.927 35.8542 161.938 36.2031C161.953 36.5521 161.969 36.8854 161.984 37.2031C162.005 37.5208 162.029 37.7865 162.055 38H160.453V29.1719C160.453 28.4115 160.44 27.724 160.414 27.1094C160.388 26.4896 160.349 25.9531 160.297 25.5H161.898V34.2891ZM165.578 34.2109C165.594 34.6693 165.664 35.0677 165.789 35.4062C165.919 35.7448 166.094 36.026 166.312 36.25C166.536 36.4688 166.797 36.6328 167.094 36.7422C167.396 36.8516 167.724 36.9062 168.078 36.9062C168.583 36.9062 169.078 36.849 169.562 36.7344C170.047 36.6198 170.529 36.4167 171.008 36.125L171.164 37.4141C170.888 37.5547 170.617 37.6745 170.352 37.7734C170.086 37.8724 169.82 37.9531 169.555 38.0156C169.289 38.0781 169.018 38.1224 168.742 38.1484C168.471 38.1797 168.185 38.1953 167.883 38.1953C167.383 38.1953 166.906 38.1094 166.453 37.9375C166 37.7604 165.602 37.5026 165.258 37.1641C164.914 36.8203 164.641 36.3958 164.438 35.8906C164.234 35.3854 164.133 34.7995 164.133 34.1328C164.133 33.487 164.219 32.9036 164.391 32.3828C164.568 31.8568 164.818 31.4089 165.141 31.0391C165.464 30.6641 165.857 30.3776 166.32 30.1797C166.784 29.9766 167.305 29.875 167.883 29.875C168.31 29.875 168.688 29.9271 169.016 30.0312C169.344 30.1302 169.628 30.2708 169.867 30.4531C170.107 30.6302 170.307 30.8385 170.469 31.0781C170.63 31.3177 170.758 31.5755 170.852 31.8516C170.951 32.1276 171.021 32.4167 171.062 32.7188C171.104 33.0156 171.125 33.3099 171.125 33.6016V33.9062C171.125 34.0365 171.122 34.138 171.117 34.2109H165.578ZM167.766 31.0469C167.193 31.0469 166.724 31.2161 166.359 31.5547C165.995 31.888 165.755 32.4089 165.641 33.1172H169.719C169.719 32.7839 169.669 32.4896 169.57 32.2344C169.477 31.974 169.341 31.7552 169.164 31.5781C168.992 31.401 168.786 31.2682 168.547 31.1797C168.307 31.0911 168.047 31.0469 167.766 31.0469ZM180.156 30.0312C180.047 30.2552 179.932 30.4974 179.812 30.7578C179.698 31.0182 179.586 31.2734 179.477 31.5234C179.372 31.7734 179.273 32.0104 179.18 32.2344C179.086 32.4583 179.008 32.6484 178.945 32.8047C178.893 32.9297 178.823 33.1016 178.734 33.3203C178.651 33.5339 178.555 33.776 178.445 34.0469C178.341 34.3125 178.229 34.5964 178.109 34.8984C177.99 35.1953 177.872 35.4896 177.758 35.7812C177.482 36.4688 177.188 37.2083 176.875 38H175.391C175.089 37.2448 174.805 36.5312 174.539 35.8594C174.424 35.5729 174.307 35.2812 174.188 34.9844C174.068 34.6875 173.953 34.4036 173.844 34.1328C173.74 33.8568 173.641 33.6042 173.547 33.375C173.458 33.1458 173.383 32.9557 173.32 32.8047C173.258 32.6484 173.18 32.4583 173.086 32.2344C172.992 32.0052 172.891 31.7656 172.781 31.5156C172.672 31.2656 172.56 31.013 172.445 30.7578C172.331 30.4974 172.219 30.2552 172.109 30.0312H173.75L176.133 36.4375L178.516 30.0312H180.156ZM182.5 34.2109C182.516 34.6693 182.586 35.0677 182.711 35.4062C182.841 35.7448 183.016 36.026 183.234 36.25C183.458 36.4688 183.719 36.6328 184.016 36.7422C184.318 36.8516 184.646 36.9062 185 36.9062C185.505 36.9062 186 36.849 186.484 36.7344C186.969 36.6198 187.451 36.4167 187.93 36.125L188.086 37.4141C187.81 37.5547 187.539 37.6745 187.273 37.7734C187.008 37.8724 186.742 37.9531 186.477 38.0156C186.211 38.0781 185.94 38.1224 185.664 38.1484C185.393 38.1797 185.107 38.1953 184.805 38.1953C184.305 38.1953 183.828 38.1094 183.375 37.9375C182.922 37.7604 182.523 37.5026 182.18 37.1641C181.836 36.8203 181.562 36.3958 181.359 35.8906C181.156 35.3854 181.055 34.7995 181.055 34.1328C181.055 33.487 181.141 32.9036 181.312 32.3828C181.49 31.8568 181.74 31.4089 182.062 31.0391C182.385 30.6641 182.779 30.3776 183.242 30.1797C183.706 29.9766 184.227 29.875 184.805 29.875C185.232 29.875 185.609 29.9271 185.938 30.0312C186.266 30.1302 186.549 30.2708 186.789 30.4531C187.029 30.6302 187.229 30.8385 187.391 31.0781C187.552 31.3177 187.68 31.5755 187.773 31.8516C187.872 32.1276 187.943 32.4167 187.984 32.7188C188.026 33.0156 188.047 33.3099 188.047 33.6016V33.9062C188.047 34.0365 188.044 34.138 188.039 34.2109H182.5ZM184.688 31.0469C184.115 31.0469 183.646 31.2161 183.281 31.5547C182.917 31.888 182.677 32.4089 182.562 33.1172H186.641C186.641 32.7839 186.591 32.4896 186.492 32.2344C186.398 31.974 186.263 31.7552 186.086 31.5781C185.914 31.401 185.708 31.2682 185.469 31.1797C185.229 31.0911 184.969 31.0469 184.688 31.0469ZM190.086 38V33.1953C190.086 32.4245 190.042 31.7734 189.953 31.2422C189.87 30.7057 189.784 30.3021 189.695 30.0312H191.102C191.133 30.1146 191.164 30.224 191.195 30.3594C191.227 30.4896 191.255 30.6276 191.281 30.7734C191.307 30.9193 191.331 31.0625 191.352 31.2031L191.414 31.5547C191.602 31.2839 191.805 31.0443 192.023 30.8359C192.247 30.6276 192.471 30.4531 192.695 30.3125C192.924 30.1667 193.146 30.0573 193.359 29.9844C193.578 29.9115 193.776 29.875 193.953 29.875C194.281 29.875 194.557 29.9479 194.781 30.0938C195.01 30.2344 195.195 30.4271 195.336 30.6719C195.482 30.9115 195.586 31.1901 195.648 31.5078C195.716 31.8203 195.75 32.1484 195.75 32.4922L194.5 32.7656C194.5 32.5729 194.482 32.388 194.445 32.2109C194.409 32.0286 194.354 31.8698 194.281 31.7344C194.208 31.5938 194.115 31.4844 194 31.4062C193.891 31.3229 193.758 31.2812 193.602 31.2812C193.435 31.2812 193.25 31.3464 193.047 31.4766C192.844 31.6016 192.643 31.7682 192.445 31.9766C192.253 32.1849 192.073 32.4193 191.906 32.6797C191.74 32.9401 191.615 33.2031 191.531 33.4688V38H190.086ZM197.195 35.5703V29.0703C197.195 28.7057 197.19 28.3672 197.18 28.0547C197.174 27.737 197.164 27.4531 197.148 27.2031C197.133 26.9531 197.109 26.75 197.078 26.5938C197.25 26.5833 197.464 26.5729 197.719 26.5625C197.974 26.5521 198.253 26.5443 198.555 26.5391C198.862 26.5286 199.182 26.5234 199.516 26.5234C199.854 26.5182 200.188 26.5156 200.516 26.5156C201.094 26.5156 201.609 26.5625 202.062 26.6562C202.516 26.75 202.896 26.9036 203.203 27.1172C203.51 27.3307 203.745 27.612 203.906 27.9609C204.068 28.3099 204.148 28.7396 204.148 29.25C204.148 29.5781 204.099 29.875 204 30.1406C203.901 30.401 203.763 30.6354 203.586 30.8438C203.414 31.0469 203.211 31.224 202.977 31.375C202.747 31.526 202.5 31.651 202.234 31.75C202.536 31.8281 202.836 31.9375 203.133 32.0781C203.43 32.2135 203.695 32.3958 203.93 32.625C204.169 32.8542 204.362 33.1406 204.508 33.4844C204.659 33.8229 204.734 34.2344 204.734 34.7188C204.734 35.1927 204.656 35.6354 204.5 36.0469C204.349 36.4531 204.104 36.8073 203.766 37.1094C203.432 37.4115 203 37.6484 202.469 37.8203C201.943 37.9922 201.305 38.0781 200.555 38.0781C200.159 38.0781 199.773 38.0755 199.398 38.0703C199.029 38.0651 198.688 38.0573 198.375 38.0469C198.068 38.0417 197.799 38.0339 197.57 38.0234C197.346 38.0182 197.182 38.0104 197.078 38C197.109 37.8438 197.133 37.6432 197.148 37.3984C197.164 37.1536 197.174 36.8776 197.18 36.5703C197.19 36.263 197.195 35.9297 197.195 35.5703ZM198.68 36.7891C198.753 36.7943 198.852 36.7995 198.977 36.8047C199.102 36.8099 199.247 36.8151 199.414 36.8203C199.581 36.8203 199.763 36.8229 199.961 36.8281C200.164 36.8281 200.375 36.8281 200.594 36.8281C200.927 36.8281 201.25 36.7943 201.562 36.7266C201.88 36.6589 202.159 36.5443 202.398 36.3828C202.643 36.2214 202.839 36.0052 202.984 35.7344C203.135 35.4635 203.211 35.125 203.211 34.7188C203.211 33.9948 202.99 33.4505 202.547 33.0859C202.109 32.7161 201.432 32.5312 200.516 32.5312H198.68V36.7891ZM198.68 31.3203H200.203C200.62 31.3203 200.979 31.276 201.281 31.1875C201.589 31.099 201.841 30.974 202.039 30.8125C202.237 30.651 202.383 30.4583 202.477 30.2344C202.576 30.0052 202.625 29.7552 202.625 29.4844C202.625 29.1927 202.583 28.9375 202.5 28.7188C202.422 28.5 202.294 28.3177 202.117 28.1719C201.945 28.0208 201.719 27.9089 201.438 27.8359C201.161 27.763 200.828 27.7266 200.438 27.7266C200.286 27.7266 200.125 27.7292 199.953 27.7344C199.781 27.7344 199.615 27.737 199.453 27.7422C199.292 27.7474 199.143 27.7526 199.008 27.7578C198.872 27.7578 198.763 27.7604 198.68 27.7656V31.3203ZM208.062 34.0547C208.062 34.5078 208.117 34.9141 208.227 35.2734C208.336 35.6328 208.49 35.9375 208.688 36.1875C208.891 36.4323 209.13 36.6198 209.406 36.75C209.682 36.8802 209.99 36.9453 210.328 36.9453C210.641 36.9453 210.935 36.8802 211.211 36.75C211.487 36.6198 211.727 36.4323 211.93 36.1875C212.138 35.9375 212.299 35.6328 212.414 35.2734C212.534 34.9141 212.594 34.5078 212.594 34.0547C212.594 33.5964 212.539 33.1875 212.43 32.8281C212.32 32.4635 212.164 32.1562 211.961 31.9062C211.763 31.651 211.523 31.4583 211.242 31.3281C210.966 31.1927 210.661 31.125 210.328 31.125C210.01 31.125 209.714 31.1927 209.438 31.3281C209.161 31.4583 208.922 31.651 208.719 31.9062C208.516 32.1562 208.354 32.4635 208.234 32.8281C208.12 33.1875 208.062 33.5964 208.062 34.0547ZM206.617 34.0547C206.617 33.3828 206.719 32.7891 206.922 32.2734C207.125 31.7526 207.398 31.3151 207.742 30.9609C208.086 30.6016 208.487 30.3307 208.945 30.1484C209.404 29.9661 209.891 29.875 210.406 29.875C210.943 29.875 211.432 29.9661 211.875 30.1484C212.323 30.3307 212.706 30.6016 213.023 30.9609C213.346 31.3151 213.596 31.7526 213.773 32.2734C213.951 32.7891 214.039 33.3828 214.039 34.0547C214.039 34.7266 213.938 35.3203 213.734 35.8359C213.531 36.3516 213.258 36.7839 212.914 37.1328C212.57 37.4818 212.169 37.7474 211.711 37.9297C211.253 38.1068 210.766 38.1953 210.25 38.1953C209.714 38.1953 209.221 38.1068 208.773 37.9297C208.331 37.7474 207.948 37.4818 207.625 37.1328C207.307 36.7839 207.06 36.3516 206.883 35.8359C206.706 35.3203 206.617 34.7266 206.617 34.0547ZM216.969 34.0547C216.969 34.5078 217.023 34.9141 217.133 35.2734C217.242 35.6328 217.396 35.9375 217.594 36.1875C217.797 36.4323 218.036 36.6198 218.312 36.75C218.589 36.8802 218.896 36.9453 219.234 36.9453C219.547 36.9453 219.841 36.8802 220.117 36.75C220.393 36.6198 220.633 36.4323 220.836 36.1875C221.044 35.9375 221.206 35.6328 221.32 35.2734C221.44 34.9141 221.5 34.5078 221.5 34.0547C221.5 33.5964 221.445 33.1875 221.336 32.8281C221.227 32.4635 221.07 32.1562 220.867 31.9062C220.669 31.651 220.43 31.4583 220.148 31.3281C219.872 31.1927 219.568 31.125 219.234 31.125C218.917 31.125 218.62 31.1927 218.344 31.3281C218.068 31.4583 217.828 31.651 217.625 31.9062C217.422 32.1562 217.26 32.4635 217.141 32.8281C217.026 33.1875 216.969 33.5964 216.969 34.0547ZM215.523 34.0547C215.523 33.3828 215.625 32.7891 215.828 32.2734C216.031 31.7526 216.305 31.3151 216.648 30.9609C216.992 30.6016 217.393 30.3307 217.852 30.1484C218.31 29.9661 218.797 29.875 219.312 29.875C219.849 29.875 220.339 29.9661 220.781 30.1484C221.229 30.3307 221.612 30.6016 221.93 30.9609C222.253 31.3151 222.503 31.7526 222.68 32.2734C222.857 32.7891 222.945 33.3828 222.945 34.0547C222.945 34.7266 222.844 35.3203 222.641 35.8359C222.438 36.3516 222.164 36.7839 221.82 37.1328C221.477 37.4818 221.076 37.7474 220.617 37.9297C220.159 38.1068 219.672 38.1953 219.156 38.1953C218.62 38.1953 218.128 38.1068 217.68 37.9297C217.237 37.7474 216.854 37.4818 216.531 37.1328C216.214 36.7839 215.966 36.3516 215.789 35.8359C215.612 35.3203 215.523 34.7266 215.523 34.0547ZM224.82 38V29.1719C224.82 28.3281 224.815 27.5911 224.805 26.9609C224.794 26.3255 224.76 25.8385 224.703 25.5H226.266V33.3047L229.43 30.0312H231.383L227.516 33.5234L231.617 38H229.703L226.266 33.9375V38H224.82ZM238.031 31.8672C237.901 31.7891 237.753 31.7083 237.586 31.625C237.419 31.5365 237.237 31.4557 237.039 31.3828C236.846 31.3099 236.638 31.25 236.414 31.2031C236.195 31.151 235.966 31.125 235.727 31.125C235.44 31.125 235.198 31.1562 235 31.2188C234.807 31.2812 234.651 31.362 234.531 31.4609C234.417 31.5547 234.333 31.6641 234.281 31.7891C234.229 31.9089 234.203 32.026 234.203 32.1406C234.203 32.276 234.224 32.3958 234.266 32.5C234.307 32.6042 234.393 32.7005 234.523 32.7891C234.659 32.8776 234.849 32.9635 235.094 33.0469C235.339 33.1302 235.667 33.2188 236.078 33.3125C236.432 33.3906 236.766 33.4922 237.078 33.6172C237.391 33.737 237.664 33.8906 237.898 34.0781C238.133 34.2656 238.318 34.4922 238.453 34.7578C238.589 35.0182 238.656 35.3307 238.656 35.6953C238.656 36.0495 238.578 36.3776 238.422 36.6797C238.266 36.9818 238.052 37.2474 237.781 37.4766C237.51 37.7005 237.193 37.875 236.828 38C236.464 38.1302 236.07 38.1953 235.648 38.1953C235.331 38.1953 235.023 38.1719 234.727 38.125C234.435 38.0781 234.159 38.013 233.898 37.9297C233.643 37.8464 233.409 37.75 233.195 37.6406C232.982 37.5312 232.797 37.4167 232.641 37.2969L233.031 35.8906C233.208 36.0469 233.406 36.1901 233.625 36.3203C233.849 36.4505 234.078 36.5625 234.312 36.6562C234.547 36.75 234.781 36.8229 235.016 36.875C235.255 36.9219 235.479 36.9453 235.688 36.9453C235.917 36.9453 236.125 36.9167 236.312 36.8594C236.505 36.7969 236.669 36.7188 236.805 36.625C236.945 36.526 237.055 36.4141 237.133 36.2891C237.211 36.1589 237.25 36.026 237.25 35.8906C237.25 35.7448 237.219 35.6094 237.156 35.4844C237.099 35.3542 236.99 35.2318 236.828 35.1172C236.672 34.9974 236.453 34.8828 236.172 34.7734C235.896 34.6641 235.539 34.5547 235.102 34.4453C234.628 34.3307 234.24 34.1953 233.938 34.0391C233.641 33.8828 233.406 33.7109 233.234 33.5234C233.068 33.3359 232.953 33.1328 232.891 32.9141C232.828 32.6953 232.797 32.4635 232.797 32.2188C232.797 32.099 232.815 31.9583 232.852 31.7969C232.893 31.6354 232.958 31.4688 233.047 31.2969C233.141 31.1198 233.26 30.9479 233.406 30.7812C233.557 30.6094 233.745 30.4583 233.969 30.3281C234.193 30.1927 234.456 30.0833 234.758 30C235.06 29.9167 235.409 29.875 235.805 29.875C236.086 29.875 236.349 29.8932 236.594 29.9297C236.844 29.9661 237.07 30.0156 237.273 30.0781C237.482 30.1354 237.672 30.2031 237.844 30.2812C238.016 30.3542 238.169 30.4271 238.305 30.5L238.031 31.8672Z" fill="url(#paint1_linear_287_17)"/>
<defs>
<linearGradient id="paint0_linear_287_17" x1="0" y1="31.5" x2="262" y2="31.5" gradientUnits="userSpaceOnUse">
<stop stop-color="#6EB27F"/>
<stop offset="1" stop-color="#4D91D4"/>
</linearGradient>
<linearGradient id="paint1_linear_287_17" x1="21" y1="31" x2="240" y2="31" gradientUnits="userSpaceOnUse">
<stop stop-color="#6EB27F"/>
<stop offset="1" stop-color="#4D91D4"/>
</linearGradient>
</defs>
</svg>
